<?xml version="1.0" encoding="UTF-8"?>
<svg id="Layer_1" fill='currentColor' data-name="Layer 1" xmlns="http://www.w3.org/2000/svg" viewBox="0 0 284.32 345.45">
  <!-- <defs>
    <style>
      .cls-1 {
        fill: #231f20;
      }
    </style>
  </defs> -->
  <g id="Layer_2" data-name="Layer 2">
    <path class="cls-1" d="M200.72,14.99c-7.45-4.79-16.76-8.58-27.23-11.2-9.8-2.44-20.68-3.79-32.11-3.79s-21.63,1.26-31.21,3.57c-8.22,1.94-15.72,4.7-22.18,8.04-3.07,2.94-5.51,6.59-7.05,10.66,0,0,0,54.98,0,55.33,0,2.13,3.38.62,4.3.17,2.26-1.11,3.83-3.14,5.7-4.77,1.11-.96,4.47-4.66,5.94-4.66,2.53-1.81,5.19-3.48,7.99-4.97.99-.54,1.99-1.08,3.03-1.54,1.17-.63,2.44-1.17,3.66-1.72,4.7-1.99,9.67-3.57,14.77-4.65,5.24-1.04,10.61-1.63,16.17-1.63,5.92,0,11.65.63,17.21,1.9,4.38.95,8.58,2.3,12.65,3.97,1.63.63,3.21,1.35,4.74,2.12,1.13.54,2.26,1.13,3.39,1.72,3.34,1.85,6.5,3.93,9.57,6.23,1.59,1.19,3.13,2.47,4.61,3.79,3.3,2.94,5.74,6.43,10.53,4.28.45-.2-.01-8.12-.01-9.23V23.35c-.99-3.03-2.53-5.87-4.47-8.36ZM161.79,34.1h-12.37v12.33h-13.73v-12.33h-12.37v-13.73h12.37V7.99h13.73v12.37h12.37v13.73Z"/>
    <path class="cls-1" d="M263.45,248.1c-9.98-9.8-22.81-16.67-37.22-19.15-.18-.59-.41-1.22-.63-1.85-1.58-4.56-2.94-9.62-4.06-15.04-2.35-11.25-3.7-24.03-3.7-37.58,0-4.9-.1-10,.65-14.86.23-1.47.57-2.91.91-4.36.91-3.88,1.9-7.74,2.58-11.66,1.12-6.46,1.69-13.02,1.69-19.57,0-15.72-3.16-30.62-8.94-44.26.38.9-5.71,2.99-6.3,3.21-3.02,1.15-6.3,2.2-9.57,1.98-3.93-.27-5.84-2.64-8.67-4.96-2.82-2.31-5.62-4.59-8.65-6.62-5.84-3.92-12.18-7.07-18.89-9.2-6.41-2.03-13.14-3.07-20.01-3.07-4.47,0-8.85.45-13.14,1.31-6.55,1.31-12.87,3.57-18.83,6.73-3.84,2.04-7.52,4.34-10.99,6.97-6.14,4.64-12.57,11.49-21.36,8-.78-.31-6.99-4.75-6.67-5.44-.59,1.26-1.13,2.57-1.63,3.93-4.26,11.61-7.51,23.82-7.92,36.24-.41,12.75,3.77,24.99,4.89,37.65v.23c.54,5.69.81,11.65.81,17.75,0,13.87-1.4,26.92-3.84,38.34-1.13,5.06-2.44,9.8-3.93,14.14-.23.68-.45,1.35-.68,1.99-14.5,2.26-27.5,8.99-37.58,18.74-7.59,7.35-13.52,16.32-17.18,26.25-1.9,5.14-3.18,10.51-3.83,15.95s-1.21,12.21-.25,17.88c1.12,6.57,5.34,9.96,10.49,13.62,19.03,13.52,42.92,17.92,65.62,20.71,15.25,1.87,30.64,2.78,46,3.11,6.23.14,12.51.23,18.79.23,7,.04,13.91,0,20.78-.14,27.07-.57,54.85-2.15,80.98-9.73,7.46-2.16,14.79-4.88,21.67-8.5,5.19-2.73,10.75-5.42,14.75-9.83,5-5.51,4.72-12.16,4.72-19.17,0-19.51-7.99-37.22-20.87-49.95ZM85.87,164.64c-1.08-.99-2.12-2.08-3.03-3.25-4.43-5.6-6.77-12.74-6.68-19.92.05-2.08.27-4.11.72-6.14.32-1.72.63-3.75,1.76-5.1.86-1.04,2.8-.81,3.75-.05.68.54,1.13,1.35,1.17,2.21.14-4.11.5-8.04,1.49-12.01,1.26-5.01,3.3-9.8,6.05-14.14,1.99-3.12,4.06-6.41,7.05-8.63,4.47-3.34,10.39-4.29,15.81-3.61,6.1.81,10.66,4.34,15.99,7.09,3.93,2.03,7.9,4.06,11.97,6.19,6.08,3.17,12.2,6.26,18.29,9.39,0,0,10.16,5.24,10.16,5.24l1.22.63,9.85,5.06,9.98,5.15,4.34,2.21c0-3.43,2.8-6.19,6.23-6.19,1.72,0,2.94.95,4.02,2.21,2.53,2.8,3.3,6.64,3.25,10.57-.09,4.47-1.08,8.94-2.66,13.1-.81,2.03-1.4,4.25-2.71,6.01-1.76,2.35-4.29,2.35-7.05,2.12-.23,0-.5-.05-.63-.27.36.63-.77,3.66-.95,4.34-.41,1.63-.9,3.21-1.49,4.74-2.53,6.77-6.37,13.01-10.7,18.7-4.2,5.56-8.9,11.16-14.45,15.31-7.68,5.74-17.12,9.17-26.69,9.17-.9,0-1.76-.04-2.62-.09-7.45-.5-14.72-2.89-21-6.96-10.39-6.64-17.98-17.88-24.21-28.32-2.26-3.79-3.97-7.9-5.1-12.15-.18-.68-2.57-2.08-3.12-2.62ZM146.52,279.13c-.63.54-1.26,1.08-1.94,1.63-.59.5-1.22,1.04-1.85,1.54-.63-.5-1.22-1.04-1.85-1.54-1.08-.9-2.17-1.81-3.21-2.66v-.05c-16.44-14.05-30.8-27.69-41.05-40.56-1.63-2.03-3.12-4.02-4.52-6.01-1.08-1.54-2.12-3.03-3.07-4.52,8.22-2.35,13.41-7.09,14.68-14.86v-.05c.18-.86.27-1.76.32-2.71,24.8,23.94,50.76,23.76,77.82,0,.14.9.32,1.76.54,2.57,1.94,7.63,6.59,12.78,15.31,14.18-1.04,1.54-2.17,3.07-3.3,4.61-1.67,2.3-3.43,4.52-5.28,6.77-11.52,14.09-26.15,27.96-42.59,41.64ZM235.63,319.06h-48.14c-4.7,0-8.54-3.79-8.54-8.49s3.84-8.49,8.54-8.49h48.14c4.7,0,8.49,3.79,8.49,8.49s-3.79,8.49-8.49,8.49Z"/>
  </g>
</svg>