<svg id="Layer_1" enable-background="new 0 0 33 33" height="1em" viewBox="0 0 33 33" width="1em" xmlns="http://www.w3.org/2000/svg"><g fill="currentColor"><path d="m16.016 5.501h.969v-1.343h1.343v-.97h-1.343v-1.343h-.969v1.343h-1.343v.97h1.343z"/><path d="m25.218 27.299h-4.679c-.465 0-.843.378-.843.843v1.224c0 .465.378.843.843.843h4.679c.465 0 .843-.378.843-.843v-1.224c0-.465-.378-.843-.843-.843zm-.127 1.939h-4.425v-.97h4.425z"/><path d="m29.689 26.278c-.302-2.266-1.796-4.1-4.321-5.305v-.001c-.009-.005-.018-.008-.027-.012l-.722-.313c-.249-.1-.488-.185-.72-.262-.495-2.676-.398-5.164-.355-5.865.575-.488.909-1.296.909-2.073 0-.353-.072-.685-.197-.985.12-.801.342-3.008-.328-5.233.104-.393.223-.87.334-1.333.22-.917.098-1.657-1.211-2.287-1.135-.547-4.776-2.109-6.549-2.109s-5.415 1.562-6.55 2.108c-1.309.631-1.431 1.37-1.211 2.288.112.464.23.942.335 1.334-.686 2.28-.431 4.571-.326 5.264-.296.743-.247 1.666.184 2.411.144.25.325.451.524.617.042.703.14 3.186-.354 5.863-.233.078-.474.164-.724.264l-.748.323c-2.526 1.204-4.02 3.039-4.322 5.306-.498 3.748-.419 5.678-.416 5.759l.022.463h27.168l.021-.463c.003-.081.082-2.011-.416-5.759zm-19.915-12.858c-.311-.538-.338-1.27-.066-1.74.221-.383.616-.577 1.137-.579 2.213.17 6.436-.814 8.3-2.5.467 1.24 1.438 2.516 2.774 2.516.086 0 .174-.006.202-.014.463 0 .815.135 1.048.4.202.231.314.566.314.944 0 .79-.479 1.649-1.233 1.552l-.462-.051-.139.906c-.011.057-1.362 5.616-5.148 5.616-3.785 0-5.136-5.559-5.145-5.596l-.141-.925-.462.051c-.53.058-.844-.345-.979-.58zm.75-5.376c.27 0 .587-.074 1.061-.25 2.396-.885 4.667-.911 4.917-.911.164 0 1.197.016 2.56.271l-.113.194c-.868 1.483-4.959 2.802-7.576 2.802-.16 0-.312-.005-.491-.018-.485 0-.91.117-1.267.324-.05-.705-.055-1.679.113-2.731.189.187.443.319.796.319zm12.753-.322c.151.954.168 1.913.111 2.74-.313-.182-.729-.325-1.315-.325-.005 0-.01 0-.016 0-1.035.14-1.986-1.32-2.214-2.627l-.033-.196c.516.123 1.058.277 1.609.48.473.175.79.25 1.061.25.355 0 .609-.133.797-.322zm-6.776 13.716c1.511 0 2.679-.68 3.575-1.593.357.28.74.522 1.031.691-.393.556-1.338 1.571-3.186 1.927l-.253.049-1.168 2.758-1.168-2.758-.254-.049c-1.87-.359-2.803-1.369-3.189-1.926.292-.17.679-.413 1.036-.693.897.915 2.065 1.594 3.576 1.594zm-1.86 1.924 1.209 2.855c-3.876-.095-5.625-1.031-6.408-1.824-.926-.938-1.089-2.139-1.114-2.67 1.114-.494 2.144-.737 2.643-.834.451.757 1.584 1.995 3.67 2.473zm3.72 0c2.086-.479 3.218-1.717 3.669-2.473.5.098 1.534.342 2.642.832-.024.531-.187 1.733-1.113 2.672-.783.793-2.531 1.729-6.406 1.824zm3.575-3.474c-.277-.146-.791-.445-1.228-.781 1.111-1.475 1.663-3.206 1.834-3.836-.026 1.07.001 2.853.319 4.812-.449-.112-.78-.172-.925-.195zm-11.563-16.406c1.309-.631 4.669-2.013 6.129-2.013s4.82 1.382 6.129 2.013c.871.419.81.676.688 1.187-.158.662-.334 1.364-.456 1.767-.193.638-.299.638-.383.638-.19 0-.504-.108-.725-.189-2.502-.924-4.814-.971-5.253-.971s-2.753.047-5.254.971c-.22.082-.535.189-.724.189-.084 0-.189 0-.384-.638-.122-.403-.298-1.105-.456-1.766-.122-.511-.184-.768.689-1.188zm.087 11.783c.172.636.724 2.367 1.833 3.84-.437.337-.953.637-1.23.783-.145.023-.476.084-.922.195.319-1.963.346-3.749.319-4.818zm-6.6 16.265c.005-.772.064-2.501.413-5.124.233-1.754 1.282-3.169 3.121-4.216.096.761.405 1.92 1.358 2.884 1.371 1.39 4.05 2.123 7.749 2.123s6.378-.733 7.748-2.122c.953-.965 1.263-2.123 1.359-2.885 1.839 1.047 2.887 2.463 3.12 4.216.35 2.623.408 4.352.413 5.124z"/></g></svg>